#N canvas 953 0 958 988 12;
#X obj 97 352 wrap~;
#X obj 55 381 *~ -1;
#X obj 55 405 +~ 1;
#X obj 55 429 *~;
#X obj 225 357 sig~;
#X obj 223 383 samphold~;
#X obj 301 407 sig~ 1;
#X obj 315 455 -~;
#X obj 315 479 *~ 0.5;
#X obj 103 579 *~;
#X obj 376 405 cos~;
#X obj 84 501 vd~ b1;
#X obj 125 30 inlet;
#X obj 104 612 outlet~;
#X floatatom 190 193 5 0 0 0 - - -;
#X floatatom 132 135 5 0 0 0 - - -;
#X obj 145 72 unpack f f;
#X obj 189 152 r sig_val;
#X obj 114 223 +~ 0.5;
#X obj 114 199 phasor~;
#X connect 0 0 1 0;
#X connect 0 0 5 1;
#X connect 0 0 10 0;
#X connect 1 0 2 0;
#X connect 2 0 3 0;
#X connect 3 0 11 0;
#X connect 4 0 5 0;
#X connect 5 0 3 1;
#X connect 6 0 7 0;
#X connect 7 0 8 0;
#X connect 8 0 9 1;
#X connect 9 0 13 0;
#X connect 10 0 7 1;
#X connect 11 0 9 0;
#X connect 12 0 16 0;
#X connect 14 0 4 0;
#X connect 15 0 19 0;
#X connect 16 0 15 0;
#X connect 17 0 14 0;
#X connect 18 0 0 0;
#X connect 19 0 18 0;
