#N canvas 509 79 958 988 12;
#X text 145 122 window width;
#X obj 156 157 hsl 100 15 100 30000 0 0 empty empty empty -2 -8 0 10
-262144 -1 -1 400 1;
#X floatatom 277 260 5 0 0 0 - - -;
#X obj 141 206 t b f;
#X floatatom 98 290 20 0 0 0 - - -;
#X obj 277 283 t b f;
#X obj 297 176 hsl 128 15 -36 36 0 0 empty empty empty -2 -8 0 10 -262144
-1 -1 6300 1;
#X text 281 148 transpose;
#X obj 98 318 expr (pow(2 \, ($f2/12)) - 1) * (44100/$f1);
#X obj 193 358 / 44.1;
#X floatatom 193 382 5 0 0 0 - - -;
#X floatatom 100 382 5 0 0 0 - - -;
#X obj 98 418 phasor~;
#X obj 437 424 wrap~;
#X obj 395 476 *~ -1;
#X obj 395 500 +~ 1;
#X obj 395 524 *~;
#X obj 556 226 adc~;
#X obj 556 250 delwrite~ b1 5000;
#X obj 516 516 sig~;
#X obj 514 542 samphold~;
#X obj 592 566 sig~ 1;
#X obj 606 614 -~;
#X obj 606 638 *~ 0.5;
#X obj 443 681 *~;
#X obj 667 564 cos~;
#X obj 59 500 *~ -1;
#X obj 59 524 +~ 1;
#X obj 59 548 *~;
#X obj 180 540 sig~;
#X obj 178 566 samphold~;
#X obj 256 590 sig~ 1;
#X obj 270 638 -~;
#X obj 270 662 *~ 0.5;
#X obj 331 588 cos~;
#X obj 129 685 *~;
#X floatatom 282 811 5 0 0 0 - - -;
#X obj 212 744 *~;
#X obj 212 768 dac~;
#X obj 290 227 int;
#X obj 89 620 vd~ b1;
#X obj 424 596 vd~ b1;
#X obj 287 779 hsl 128 15 0 1 0 0 empty empty empty -2 -8 0 10 -262144
-1 -1 1400 1;
#X text 293 757 VOLUME;
#X obj 574 31 tgl 15 0 empty empty empty 17 7 0 10 -262144 -1 -1 0
1;
#X floatatom 541 177 5 0 0 0 - - -;
#X obj 567 103 random 36;
#X obj 571 65 metro 100;
#X obj 670 50 hsl 128 15 0 127 0 0 empty empty empty -2 -8 0 10 -262144
-1 -1 0 1;
#X obj 435 400 +~ 0;
#X connect 1 0 3 0;
#X connect 2 0 5 0;
#X connect 3 0 2 0;
#X connect 3 1 4 0;
#X connect 4 0 8 0;
#X connect 4 0 9 0;
#X connect 5 0 4 0;
#X connect 5 1 8 1;
#X connect 6 0 39 0;
#X connect 8 0 11 0;
#X connect 9 0 10 0;
#X connect 10 0 19 0;
#X connect 10 0 29 0;
#X connect 11 0 12 0;
#X connect 12 0 30 1;
#X connect 12 0 34 0;
#X connect 12 0 26 0;
#X connect 12 0 49 0;
#X connect 13 0 14 0;
#X connect 13 0 20 1;
#X connect 13 0 25 0;
#X connect 14 0 15 0;
#X connect 15 0 16 0;
#X connect 16 0 41 0;
#X connect 17 0 18 0;
#X connect 17 1 18 0;
#X connect 19 0 20 0;
#X connect 20 0 16 1;
#X connect 21 0 22 0;
#X connect 22 0 23 0;
#X connect 23 0 24 1;
#X connect 24 0 37 0;
#X connect 25 0 22 1;
#X connect 26 0 27 0;
#X connect 27 0 28 0;
#X connect 28 0 40 0;
#X connect 29 0 30 0;
#X connect 30 0 28 1;
#X connect 31 0 32 0;
#X connect 32 0 33 0;
#X connect 33 0 35 1;
#X connect 34 0 32 1;
#X connect 35 0 37 0;
#X connect 36 0 37 1;
#X connect 37 0 38 0;
#X connect 37 0 38 1;
#X connect 39 0 2 0;
#X connect 40 0 35 0;
#X connect 41 0 24 0;
#X connect 42 0 36 0;
#X connect 44 0 47 0;
#X connect 45 0 39 0;
#X connect 46 0 45 0;
#X connect 47 0 46 0;
#X connect 48 0 47 1;
#X connect 49 0 13 0;
