#N canvas -7 0 958 988 12;
#X text 145 122 window width;
#X obj 156 157 hsl 100 15 100 30000 0 0 empty empty empty -2 -8 0 10
-262144 -1 -1 3200 1;
#X floatatom 277 260 5 0 0 0 - - -;
#X obj 141 206 t b f;
#X floatatom 98 290 20 0 0 0 - - -;
#X obj 277 283 t b f;
#X obj 297 175 hsl 128 15 -36 36 0 0 empty empty empty -2 -8 0 10 -262144
-1 -1 5300 1;
#X text 281 148 transpose;
#X obj 98 318 expr (pow(2 \, ($f2/12)) - 1) * (44100/$f1);
#X obj 193 358 / 44.1;
#X floatatom 193 382 5 0 0 0 - - -;
#X floatatom 100 382 5 0 0 0 - - -;
#X obj 556 226 adc~;
#X obj 556 250 delwrite~ b1 5000;
#X floatatom 282 811 5 0 0 0 - - -;
#X obj 212 744 *~;
#X obj 212 768 dac~;
#X obj 290 227 int;
#X obj 285 779 hsl 128 15 0 1 0 0 empty empty empty -2 -8 0 10 -262144
-1 -1 1500 1;
#X text 293 757 VOLUME;
#X obj 574 31 tgl 15 0 empty empty empty 17 7 0 10 -262144 -1 -1 0
1;
#X floatatom 541 177 5 0 0 0 - - -;
#X obj 567 103 random 36;
#X obj 571 65 metro 100;
#X obj 670 50 hsl 128 15 0 127 0 0 empty empty empty -2 -8 0 10 -262144
-1 -1 6000 1;
#X msg 106 488 next \$1;
#X obj 106 521 clone grain 2;
#X obj 106 454 pack f f;
#X connect 1 0 3 0;
#X connect 2 0 5 0;
#X connect 3 0 2 0;
#X connect 3 1 4 0;
#X connect 4 0 8 0;
#X connect 4 0 9 0;
#X connect 5 0 4 0;
#X connect 5 1 8 1;
#X connect 6 0 17 0;
#X connect 8 0 11 0;
#X connect 9 0 10 0;
#X connect 10 0 27 1;
#X connect 11 0 27 0;
#X connect 12 0 13 0;
#X connect 12 1 13 0;
#X connect 14 0 15 1;
#X connect 15 0 16 0;
#X connect 15 0 16 1;
#X connect 17 0 2 0;
#X connect 18 0 14 0;
#X connect 20 0 23 0;
#X connect 21 0 17 0;
#X connect 22 0 21 0;
#X connect 23 0 22 0;
#X connect 24 0 23 1;
#X connect 25 0 26 0;
#X connect 26 0 15 0;
#X connect 27 0 25 0;
