#N canvas 953 0 958 988 12;
#X obj 597 426 array define grainArray;
#X obj 196 178 soundfiler;
#X floatatom 197 217 20 0 0 0 - - -;
#X msg 201 134 read -resize test.wav grainArray;
#X obj 97 816 dac~;
#X floatatom 445 398 5 0 0 0 - - -;
#X obj 445 424 s grain_dur;
#X msg 630 373 0 \, 669549 15000;
#X obj 99 715 clone grain 16;
#X obj 98 752 *~ 0.5;
#X msg 99 679 next \$1;
#X obj 102 557 phasor~;
#X obj 101 590 *~;
#X obj 101 614 snapshot~;
#X floatatom 101 654 10 0 0 0 - - -;
#X floatatom 105 391 5 0 0 0 - - -;
#X obj 253 498 tgl 15 0 empty empty empty 17 7 0 10 -262144 -1 -1 1
1;
#X obj 253 518 metro 125;
#X obj 101 332 expr $f2 / $f1;
#X obj 244 279 loadbang;
#X obj 244 303 samplerate~;
#X obj 345 269 bng 15 250 50 0 empty empty empty 17 7 0 10 -262144
-1 -1;
#X obj 105 473 * 1;
#X floatatom 179 417 10 0 0 0 - - -;
#X obj 179 440 t b f;
#X obj 249 577 random 10;
#X obj 248 607 + 50;
#X floatatom 350 605 5 0 0 0 - - -;
#X floatatom 348 575 5 0 0 0 - - -;
#X text 396 603 grain rate;
#X text 263 414 playback rate;
#X connect 1 0 2 0;
#X connect 2 0 12 1;
#X connect 2 0 18 0;
#X connect 3 0 1 0;
#X connect 5 0 6 0;
#X connect 8 0 9 0;
#X connect 9 0 4 0;
#X connect 9 0 4 1;
#X connect 10 0 8 0;
#X connect 11 0 12 0;
#X connect 12 0 13 0;
#X connect 13 0 14 0;
#X connect 14 0 10 0;
#X connect 15 0 22 0;
#X connect 16 0 17 0;
#X connect 17 0 13 0;
#X connect 17 0 25 0;
#X connect 18 0 15 0;
#X connect 19 0 20 0;
#X connect 20 0 18 1;
#X connect 21 0 20 0;
#X connect 22 0 11 0;
#X connect 23 0 24 0;
#X connect 24 0 22 0;
#X connect 24 1 22 1;
#X connect 25 0 26 0;
#X connect 26 0 28 0;
#X connect 27 0 25 1;
#X connect 28 0 17 1;
