#N canvas 232 51 1496 978 12;
#X obj 18 77 hsl 100 15 100 30000 0 0 empty empty WINDOW_WIDTH -2 -8
0 10 -203904 -1 -1 19900 1;
#X floatatom 164 117 5 0 0 0 - - -;
#X obj 259 263 t b f;
#X floatatom 157 75 10 0 0 0 - - -;
#X obj 395 340 t b f;
#X obj 20 120 hsl 128 15 -36 36 0 0 empty empty TRANSPOSE -2 -8 0 10
-232576 -1 -1 12800 1;
#X obj 216 375 expr (pow(2 \, ($f2/12)) - 1) * (44100/$f1);
#X obj 311 415 / 44.1;
#X floatatom 311 439 5 0 0 0 - - -;
#X floatatom 218 439 5 0 0 0 - - -;
#X obj 576 341 adc~;
#X obj 574 415 delwrite~ b1 5000;
#X floatatom 163 182 5 0 0 0 - - -;
#X obj 408 284 int;
#X obj 21 185 hsl 128 15 0 1 0 0 empty empty VOLUME -2 -8 0 10 -204800
-1 -1 3500 1;
#X obj 257 65 tgl 30 0 empty empty WONK!!! -2 -8 0 10 -258113 -1 -1
0 1;
#X floatatom 561 292 5 0 0 0 - - -;
#X obj 587 218 random 36;
#X obj 591 180 metro 100;
#X obj 263 118 hsl 128 15 0 127 0 0 empty empty WONK_SPEED -2 -8 0
10 -257985 -1 -1 11600 1;
#X obj 174 486 phasor~;
#X msg 224 605 next \$1;
#X obj 179 557 snapshot~;
#X obj 311 462 s sig_val;
#X obj 306 803 *~ 0;
#X obj 178 520 +~ 0;
#X obj 224 663 clone grain 8;
#X text 440 11 @jlioanag;
#X obj 431 48 vu 50 120 empty empty -1 -8 0 10 -66577 -1 1 0;
#X obj 452 547 env~ 128;
#X obj 306 837 outlet~;
#X obj 452 571 - 80;
#X connect 0 0 2 0;
#X connect 1 0 4 0;
#X connect 2 0 1 0;
#X connect 2 1 3 0;
#X connect 3 0 6 0;
#X connect 3 0 7 0;
#X connect 4 0 3 0;
#X connect 4 1 6 1;
#X connect 5 0 13 0;
#X connect 6 0 9 0;
#X connect 7 0 8 0;
#X connect 8 0 23 0;
#X connect 9 0 21 0;
#X connect 9 0 20 0;
#X connect 10 0 11 0;
#X connect 10 1 11 0;
#X connect 12 0 24 1;
#X connect 13 0 1 0;
#X connect 14 0 12 0;
#X connect 15 0 18 0;
#X connect 16 0 13 0;
#X connect 17 0 16 0;
#X connect 18 0 17 0;
#X connect 19 0 18 1;
#X connect 20 0 25 0;
#X connect 21 0 26 0;
#X connect 22 0 21 0;
#X connect 24 0 29 0;
#X connect 24 0 30 0;
#X connect 25 0 22 0;
#X connect 26 0 24 0;
#X connect 29 0 31 0;
#X connect 31 0 28 0;
#X coords 0 -1 1 1 500 200 1 10 10;
