#N canvas 953 0 958 988 12;
#X obj 70 31 inlet;
#X floatatom 377 275 5 0 0 0 - - -;
#X obj 377 298 t b f;
#X obj 378 366 *;
#X obj 223 243 r grain_dur;
#X floatatom 223 267 5 0 0 0 - - -;
#X obj 378 390 t b f;
#X obj 378 414 +;
#X obj 217 381 f;
#X obj 217 405 moses 0;
#X msg 217 438 0;
#X obj 263 501 pack 0 0;
#X obj 263 525 line~;
#X obj 263 549 vd~ tape1;
#X obj 85 324 r max_delay;
#X obj 50 356 *;
#X floatatom 28 303 5 0 0 0 - - -;
#X floatatom 47 385 5 0 0 0 - - -;
#X obj 66 427 -;
#X floatatom 66 451 5 0 0 0 - - -;
#X obj 66 474 t b f;
#X obj 49 515 max;
#X floatatom 49 539 5 0 0 0 - - -;
#X msg 452 471 1;
#X obj 86 64 t f b;
#X obj 456 504 pack 0 0;
#X msg 518 469 0;
#X obj 460 538 line~;
#X obj 460 562 cos~;
#X obj 460 586 *~ -1;
#X obj 460 610 +~ 1;
#X obj 460 634 /~ 2;
#X obj 316 681 *~;
#X obj 351 775 outlet~;
#X connect 0 0 24 0;
#X connect 1 0 2 0;
#X connect 2 0 3 0;
#X connect 2 1 3 1;
#X connect 3 0 6 0;
#X connect 4 0 5 0;
#X connect 5 0 3 0;
#X connect 5 0 11 1;
#X connect 6 0 7 0;
#X connect 6 1 7 1;
#X connect 7 0 8 1;
#X connect 8 0 9 0;
#X connect 9 0 10 0;
#X connect 10 0 11 0;
#X connect 11 0 12 0;
#X connect 11 0 23 0;
#X connect 12 0 13 0;
#X connect 13 0 32 0;
#X connect 14 0 15 1;
#X connect 15 0 17 0;
#X connect 16 0 15 0;
#X connect 17 0 7 0;
#X connect 17 0 18 0;
#X connect 17 0 21 0;
#X connect 18 0 19 0;
#X connect 19 0 20 0;
#X connect 20 0 21 0;
#X connect 20 1 21 1;
#X connect 21 0 22 0;
#X connect 22 0 12 0;
#X connect 23 0 25 0;
#X connect 24 0 1 0;
#X connect 24 1 26 0;
#X connect 24 1 16 0;
#X connect 25 0 27 0;
#X connect 26 0 27 0;
#X connect 27 0 28 0;
#X connect 28 0 29 0;
#X connect 29 0 30 0;
#X connect 30 0 31 0;
#X connect 31 0 32 1;
#X connect 32 0 33 0;
