#N canvas 439 353 675 684 12;
#X obj 66 368 line~;
#X msg 63 329 \$1 \, \$2 \$3;
#X floatatom 45 140 5 0 0 0 - - -;
#X obj 47 164 t f f;
#X obj 61 297 pack f f f;
#X obj 99 250 +;
#X floatatom 121 203 5 0 0 0 - - -;
#X obj 183 252 * 44.1;
#X obj 228 143 loadbang;
#X obj 228 167 samplerate~;
#X obj 228 191 / 1000;
#X obj 112 164 r grain_dur;
#X obj 41 33 inlet;
#X obj 64 582 outlet~;
#X obj 39 92 t f b, f 54;
#X obj 423 122 t b b;
#X obj 424 152 del 50;
#X msg 424 176 0;
#X obj 424 238 pack f 50;
#X msg 501 153 1;
#X obj 424 262 line~;
#X obj 65 516 *~, f 51;
#X obj 475 92 r grain_dur;
#X obj 475 116 - 50;
#X floatatom 228 215 5 0 0 0 - - -;
#X obj 66 392 vd~ tape1;
#X connect 0 0 25 0;
#X connect 1 0 0 0;
#X connect 2 0 3 0;
#X connect 3 0 4 0;
#X connect 3 1 5 0;
#X connect 4 0 1 0;
#X connect 5 0 4 1;
#X connect 6 0 7 0;
#X connect 6 0 4 2;
#X connect 7 0 5 1;
#X connect 8 0 9 0;
#X connect 9 0 10 0;
#X connect 10 0 24 0;
#X connect 11 0 6 0;
#X connect 12 0 14 0;
#X connect 14 0 2 0;
#X connect 14 1 15 0;
#X connect 15 0 16 0;
#X connect 15 0 19 0;
#X connect 16 0 17 0;
#X connect 17 0 18 0;
#X connect 18 0 20 0;
#X connect 19 0 18 0;
#X connect 20 0 21 1;
#X connect 21 0 13 0;
#X connect 22 0 23 0;
#X connect 23 0 16 1;
#X connect 24 0 7 1;
#X connect 25 0 21 0;
